<svg xmlns="http://www.w3.org/2000/svg" width="1216" height="735" fill="none"><g clip-path="url('#clip0_738_139')"><path fill="url('#paint0_linear_738_139')" d="M1216 689.6V685H0v4.6c0 13.441 0 20.162 2.616 25.296a24 24 0 0 0 10.488 10.488C18.238 728 24.96 728 38.4 728h1139.2c13.44 0 20.16 0 25.3-2.616a24 24 0 0 0 10.48-10.488c2.62-5.134 2.62-11.855 2.62-25.296"/><path fill="#000" fill-opacity=".4" d="M1216 689.6V685H0v4.6c0 13.441 0 20.162 2.616 25.296a24 24 0 0 0 10.488 10.488C18.238 728 24.96 728 38.4 728h1139.2c13.44 0 20.16 0 25.3-2.616a24 24 0 0 0 10.48-10.488c2.62-5.134 2.62-11.855 2.62-25.296"/><path fill="url('#paint1_linear_738_139')" d="M1146 731c1.6-.4 2.67-2.167 3-3h-79.5c.33.833 1.4 2.6 3 3 .17 1.167.9 3.5 2.5 3.5h68.5c1.6 0 2.33-2.333 2.5-3.5"/><path fill="url('#paint2_linear_738_139')" fill-rule="evenodd" d="M1145.93 731.406v-.156h-73.39c.23 1.22.97 3.25 2.46 3.25h68.5c1.43 0 2.17-1.865 2.43-3.094" clip-rule="evenodd"/><path fill="#383838" fill-rule="evenodd" d="M1145.93 731.25v.156c-.08.348-.19.746-.34 1.139h-72.68c-.18-.453-.3-.914-.37-1.295z" clip-rule="evenodd"/><path fill="url('#paint3_linear_738_139')" d="M142.5 731c1.6-.4 2.667-2.167 3-3H66c.333.833 1.4 2.6 3 3 .167 1.167.9 3.5 2.5 3.5H140c1.6 0 2.333-2.333 2.5-3.5"/><path fill="url('#paint4_linear_738_139')" fill-rule="evenodd" d="M142.428 731.406v-.156H69.041c.228 1.22.966 3.25 2.459 3.25H140c1.43 0 2.168-1.865 2.428-3.094" clip-rule="evenodd"/><path fill="#383838" fill-rule="evenodd" d="M142.428 731.25v.156a7 7 0 0 1-.34 1.139H69.412a7.3 7.3 0 0 1-.37-1.295z" clip-rule="evenodd"/><path fill="url('#paint5_linear_738_139')" d="M502 685h211.5c0 9.113-7.387 16.5-16.5 16.5H518.5c-9.113 0-16.5-7.387-16.5-16.5"/><path fill="#000" fill-opacity=".29" d="M502 685h211.5c0 9.113-7.387 16.5-16.5 16.5H518.5c-9.113 0-16.5-7.387-16.5-16.5"/><path stroke="#fff" stroke-opacity=".1" d="M712.992 685.5c-.264 8.605-7.323 15.5-15.992 15.5H518.5c-8.669 0-15.728-6.895-15.992-15.5z"/><path fill="url('#paint6_linear_738_139')" d="M1121.5 685h81v33h-81z"/><path fill="url('#paint7_linear_738_139')" d="M0 0h84v33H0z" transform="matrix(-1 0 0 1 84.5 685)"/><g filter="url('#filter0_f_738_139')"><path fill="#D2D2DA" d="M1192.5 685h13v20.112a7.887 7.887 0 0 1-7.89 7.888 5.113 5.113 0 0 1-5.11-5.112z"/></g><g filter="url('#filter1_f_738_139')"><path fill="#D2D2DA" d="M20.5 685h-11v21.326A6.674 6.674 0 0 0 16.174 713a4.326 4.326 0 0 0 4.326-4.326z"/></g></g><path fill="#7D7D7F" fill-rule="evenodd" d="M1108.5 685H108V30c0-16.568 13.431-30 30-30h940.5c16.57 0 30 13.432 30 30zm-30-683H138c-15.464 0-28 12.536-28 28v653h996.5V30c0-15.464-12.54-28-28-28" clip-rule="evenodd"/><path stroke="#000" stroke-width="16" d="M118 29.095C118 18.8 126.707 10 138.014 10h940.976c11.3 0 20.01 8.799 20.01 19.095V653H118z"/><path fill="#000" d="M110 661h997v22H110z"/><path fill="url('#paint8_linear_738_139')" d="M113 661h991v15.696c0 1.825-1.79 3.304-4 3.304H117.001c-2.21 0-4.001-1.479-4.001-3.304z"/><path fill="#000" d="M667 20.5c0-2.5 3-2.5 4.5-2.5h-127c1.5 0 4.5 0 4.5 2.5V30a8 8 0 0 0 8 8h102a8 8 0 0 0 8-8z"/><circle cx="608" cy="24.091" r="3.779" fill="#0F0F0F" stroke="#151515" stroke-width=".261"/><circle cx="607.609" cy="25.003" r=".912" fill="#16181E"/><circle cx="607.609" cy="23.7" r=".912" fill="#0A0B0D"/><circle cx="608" cy="24.091" r="1.303" fill="#1F2531" opacity=".6"/><defs><linearGradient id="paint0_linear_738_139" x1="608" x2="608" y1="685" y2="728" gradientUnits="userSpaceOnUse"><stop stop-color="#AEAFB4"/><stop offset=".193" stop-color="#AFB0B5"/><stop offset=".376" stop-color="#AFB0B5"/><stop offset=".599" stop-color="#7D7E82"/><stop offset=".714" stop-color="#696A6F"/><stop offset=".852" stop-color="#838489"/><stop offset=".931" stop-color="#ABACB0"/></linearGradient><linearGradient id="paint1_linear_738_139" x1="1069.5" x2="1149" y1="731.25" y2="731.25" gradientUnits="userSpaceOnUse"><stop stop-color="#8C8D91"/><stop offset=".173" stop-color="#525358"/><stop offset=".318" stop-color="#78797D"/><stop offset=".465" stop-color="#A0A0A2"/><stop offset=".691" stop-color="#9A9A9C"/><stop offset=".826" stop-color="#4F5055"/><stop offset=".941" stop-color="#9E9EA0"/><stop offset="1" stop-color="#848589"/></linearGradient><linearGradient id="paint2_linear_738_139" x1="1072.54" x2="1145.93" y1="732.875" y2="732.875" gradientUnits="userSpaceOnUse"><stop stop-color="#575757"/><stop offset=".083" stop-color="#2D2D2D"/><stop offset=".49" stop-color="#4E4E4E"/><stop offset=".825" stop-color="#2A2A2A"/><stop offset="1" stop-color="#5C5C5C"/></linearGradient><linearGradient id="paint3_linear_738_139" x1="66" x2="145.5" y1="731.25" y2="731.25" gradientUnits="userSpaceOnUse"><stop stop-color="#8C8D91"/><stop offset=".173" stop-color="#525358"/><stop offset=".318" stop-color="#78797D"/><stop offset=".465" stop-color="#A0A0A2"/><stop offset=".691" stop-color="#9A9A9C"/><stop offset=".826" stop-color="#4F5055"/><stop offset=".941" stop-color="#9E9EA0"/><stop offset="1" stop-color="#848589"/></linearGradient><linearGradient id="paint4_linear_738_139" x1="69.041" x2="142.428" y1="732.875" y2="732.875" gradientUnits="userSpaceOnUse"><stop stop-color="#575757"/><stop offset=".083" stop-color="#2D2D2D"/><stop offset=".49" stop-color="#4E4E4E"/><stop offset=".825" stop-color="#2A2A2A"/><stop offset="1" stop-color="#5C5C5C"/></linearGradient><linearGradient id="paint5_linear_738_139" x1="502.5" x2="713.5" y1="693" y2="693" gradientUnits="userSpaceOnUse"><stop stop-color="#25262B"/><stop offset=".016" stop-color="#606166"/><stop offset=".036" stop-color="#9FA0A4"/><stop offset=".05" stop-color="#C8C8CE"/><stop offset=".479" stop-color="#D7D8DD"/><stop offset=".941" stop-color="#CBCBD3"/><stop offset=".97" stop-color="#A7A8AC"/><stop offset=".98" stop-color="#595A5E"/><stop offset="1" stop-color="#27282C"/></linearGradient><linearGradient id="paint6_linear_738_139" x1="1202.5" x2="1121.5" y1="702" y2="702" gradientUnits="userSpaceOnUse"><stop stop-color="#65666B" stop-opacity="0"/><stop offset=".26" stop-color="#65666B"/><stop offset="1" stop-color="#65666B" stop-opacity="0"/></linearGradient><linearGradient id="paint7_linear_738_139" x1="84" x2="0" y1="17" y2="17" gradientUnits="userSpaceOnUse"><stop stop-color="#65666B" stop-opacity="0"/><stop offset=".26" stop-color="#65666B"/><stop offset="1" stop-color="#65666B" stop-opacity="0"/></linearGradient><linearGradient id="paint8_linear_738_139" x1="607.826" x2="607.826" y1="661" y2="680" gradientUnits="userSpaceOnUse"><stop stop-color="#222"/><stop offset=".085" stop-color="#242424"/><stop offset=".83" stop-color="#242424"/><stop offset="1" stop-color="#201F24"/></linearGradient><filter id="filter0_f_738_139" width="29" height="44" x="1184.5" y="677" color-interpolation-filters="sRGB" filterUnits="userSpaceOnUse"><feFlood flood-opacity="0" result="BackgroundImageFix"/><feBlend in="SourceGraphic" in2="BackgroundImageFix" result="shape"/><feGaussianBlur result="effect1_foregroundBlur_738_139" stdDeviation="4"/></filter><filter id="filter1_f_738_139" width="31" height="48" x="-.5" y="675" color-interpolation-filters="sRGB" filterUnits="userSpaceOnUse"><feFlood flood-opacity="0" result="BackgroundImageFix"/><feBlend in="SourceGraphic" in2="BackgroundImageFix" result="shape"/><feGaussianBlur result="effect1_foregroundBlur_738_139" stdDeviation="5"/></filter><clipPath id="clip0_738_139"><path fill="#fff" d="M0 685h1216v49.5H0z"/></clipPath></defs></svg>